<svg width="74" height="80" viewBox="0 0 74 80" fill="none" xmlns="http://www.w3.org/2000/svg">
<path d="M9.70319 0.281166C8.29694 0.781166 7.25007 1.78117 6.75007 3.14054C6.54694 3.68742 6.46882 4.59367 6.40632 7.43742L6.34382 11.0468L5.37507 11.1562C4.09382 11.2812 2.95319 11.8749 2.04694 12.8749C1.12507 13.8749 0.750066 14.8749 0.750066 16.2812C0.750066 18.9843 2.71882 21.1562 5.37507 21.3749L6.37507 21.453V26.1874V30.9374H5.90632C4.31257 30.9374 2.45319 31.9218 1.57819 33.2343C-0.624934 36.5155 1.45319 40.8905 5.35944 41.2187L6.37507 41.2968V46.0155V50.7343L5.56257 50.8437C3.43757 51.1093 1.93757 52.1562 1.14069 53.9218C0.750066 54.7968 0.718816 55.0155 0.781316 56.2343C0.859441 57.8593 1.21882 58.6562 2.34382 59.7187C3.23444 60.578 4.46882 61.0937 5.57819 61.0937H6.34382L6.40632 64.7968C6.46882 68.3905 6.48444 68.5468 6.85944 69.3905C7.35944 70.453 8.21882 71.328 9.26569 71.8124L10.0469 72.1874H26.7032H43.3438L44.4376 73.6249C49.6251 80.5155 59.5469 81.9999 66.6094 76.953C67.7657 76.1405 69.8594 73.9687 70.6094 72.8124C74.2344 67.2968 74.2188 60.4218 70.5626 54.8437C69.7188 53.5468 67.5157 51.3437 66.2188 50.4999C65.6563 50.1249 64.7344 49.6093 64.1563 49.328L63.0938 48.828L63.0626 26.2499L63.0157 3.67179L62.6563 2.89054C62.2032 1.90617 61.3594 1.03117 60.3594 0.499916L59.5782 0.0780411L35.0469 0.0467911C11.8126 0.0155411 10.4688 0.0155411 9.70319 0.281166ZM17.6251 36.0937V69.6874H14.1094C10.2032 69.6874 9.90632 69.6249 9.34382 68.703C9.06257 68.2499 9.03132 67.8905 9.03132 64.6405V61.0937H9.96882C12.0157 61.0937 13.9376 59.7812 14.6407 57.8905C15.1251 56.6093 15.0469 54.8124 14.4688 53.6718C13.6407 52.0624 12.0313 51.0312 10.0938 50.8437L9.03132 50.7343V46.0155V41.2968L10.1876 41.2187C13.9532 40.9687 16.1407 37.203 14.4844 33.8124C13.7344 32.2499 12.0782 31.1718 10.1719 30.9999L9.03132 30.8905V26.1718V21.453L10.1876 21.3749C11.1251 21.3124 11.5157 21.203 12.3282 20.7499C14.0782 19.7968 14.9688 18.2499 14.9688 16.1874C14.9688 14.7655 14.4063 13.4999 13.3438 12.5312C12.3907 11.6405 11.4688 11.2499 10.1251 11.1405L9.03132 11.0468V7.49992C9.03132 4.09367 9.04694 3.93742 9.37507 3.51554C10.1407 2.54679 10.3438 2.49992 14.1563 2.49992H17.6251V36.0937ZM59.3438 2.78117C59.6876 2.96867 60.0313 3.32804 60.2501 3.74992L60.5938 4.43742V26.2812V48.1093L60.0938 47.9999C59.8126 47.9374 58.4532 47.8905 57.0782 47.8905C54.1563 47.9062 52.8438 48.1874 50.5001 49.2812C45.0001 51.8905 41.6563 56.7499 41.1407 62.8905C41.0001 64.6874 41.4376 67.7187 42.0782 69.4062C42.1876 69.6718 41.5938 69.6874 31.1563 69.6874H20.1251V36.0937V2.49992H39.4688C57.8751 2.49992 58.8282 2.51554 59.3438 2.78117ZM10.9219 13.8437C11.8907 14.2499 12.4688 15.1249 12.4688 16.2499C12.4688 17.2343 12.1251 17.9062 11.3282 18.4999C10.9063 18.8124 10.6876 18.828 7.85944 18.828C5.04694 18.828 4.81257 18.8124 4.40632 18.4999C3.45319 17.7968 3.06257 16.8437 3.26569 15.7187C3.40632 14.9062 3.82819 14.3593 4.65632 13.9374C5.28132 13.6249 5.56257 13.5937 7.81257 13.5937C9.73444 13.5937 10.4219 13.6562 10.9219 13.8437ZM10.6719 33.6093C11.9688 33.9687 12.8126 35.4374 12.4688 36.7187C12.2813 37.4374 11.6719 38.203 11.0469 38.5155C10.4219 38.8437 5.29694 38.8437 4.68757 38.5312C2.59382 37.4374 2.71882 34.4374 4.89069 33.6718C5.65632 33.4062 9.75007 33.3593 10.6719 33.6093ZM56.0313 50.8905C55.5469 52.6562 56.7969 54.0624 58.0001 53.1093C58.4063 52.7812 58.4219 52.7187 58.3751 51.5312L58.3282 50.2812L59.0313 50.3905C61.1407 50.6874 63.5001 51.6093 65.1719 52.8124L66.0782 53.4687L65.4688 53.8905C64.2501 54.7812 63.9532 55.8437 64.7188 56.5155C64.9532 56.703 65.3126 56.8749 65.5313 56.8749C65.9532 56.8749 67.2657 55.7655 67.4688 55.2499C67.5626 54.9999 67.6876 55.1093 68.3126 55.9687C68.7032 56.5468 69.2813 57.5312 69.5782 58.1718C70.1094 59.3437 70.7501 61.578 70.7501 62.3437C70.7501 62.7343 70.7344 62.7343 69.7188 62.6874C68.5001 62.6249 68.0157 62.8124 67.7969 63.4687C67.5938 64.0312 67.7969 64.578 68.3282 64.9374C68.6251 65.1249 68.9688 65.1718 69.7501 65.1249L70.7813 65.0624L70.6876 65.9218C70.4688 67.7812 69.1876 70.7655 68.0157 72.1562L67.6251 72.6249L66.8126 71.7812C65.9063 70.828 65.3282 70.6874 64.7032 71.2812C64.1094 71.8437 64.2032 72.5937 65.0001 73.3905C65.3594 73.7655 65.7501 74.0624 65.8594 74.0624C66.2344 74.0624 66.0626 74.2968 65.2344 74.8905C63.5469 76.1249 61.0938 77.0937 58.8751 77.3905L58.3282 77.4687L58.3751 76.2968C58.4219 75.2499 58.3907 75.078 58.0782 74.7499C57.6407 74.2812 56.8751 74.2499 56.4219 74.6874C56.0157 75.0624 55.8282 76.1562 56.0313 76.9218L56.1876 77.4687L55.6094 77.3905C53.3751 77.0937 50.8907 76.1093 49.2188 74.8905C48.4063 74.2968 48.2344 74.0624 48.6094 74.0624C48.7188 74.0624 49.1094 73.7655 49.4688 73.3905C50.2344 72.6093 50.3438 71.9062 49.7813 71.2968C49.2188 70.703 48.5313 70.8124 47.7032 71.6405C47.3126 72.0155 47.0001 72.4062 47.0001 72.4999C47.0001 72.8749 46.7032 72.578 45.9376 71.4218C44.9844 69.9843 44.3282 68.4687 43.9688 66.9062C43.5469 65.0468 43.5313 65.0624 44.7813 65.1249C45.6719 65.1718 45.8907 65.1405 46.2657 64.8437C46.8282 64.3905 46.8594 63.4999 46.3126 62.9843C45.9844 62.6718 45.7969 62.6405 44.8126 62.6874L43.6876 62.7343L43.7969 61.828C44.0001 59.9843 44.9063 57.7499 46.1876 55.953C46.7813 55.1093 46.9063 54.9999 47.0001 55.2499C47.1876 55.7499 48.5157 56.8749 48.9219 56.8749C49.5782 56.8749 50.1251 56.3124 50.1251 55.6405C50.1251 55.1249 50.0157 54.9374 49.2813 54.2499L48.4376 53.4374L49.1563 52.9218C51.0938 51.5155 53.9688 50.3905 55.7813 50.328C56.1876 50.3124 56.1876 50.328 56.0313 50.8905ZM11.3282 53.7812C12.9219 54.828 12.8751 57.1405 11.2344 58.2343C10.7344 58.578 10.5626 58.5937 7.85944 58.5937C5.17194 58.5937 4.98444 58.578 4.50007 58.2343C3.45319 57.5312 3.04694 56.5468 3.29694 55.3437C3.45319 54.5624 4.25007 53.6718 5.01569 53.453C5.28132 53.3593 6.68757 53.3124 8.10944 53.328C10.6251 53.3593 10.7188 53.3749 11.3282 53.7812Z" fill="white"/>
<path d="M30.5156 13.125L27.6875 15.9375L26.375 14.6094C25.2812 13.5156 24.9688 13.2812 24.5625 13.2812C23.9219 13.2812 23.4062 13.8438 23.4062 14.5469C23.4062 15.0469 23.5938 15.2812 25.3281 17C27.0312 18.6875 27.3281 18.9062 27.7969 18.9062C28.2656 18.9062 28.625 18.5938 31.7188 15.5C34.875 12.3438 35.125 12.0625 35.125 11.5469C35.125 10.8281 34.6094 10.3125 33.875 10.3125C33.4062 10.3125 33.0625 10.5938 30.5156 13.125Z" fill="white"/>
<path d="M38.0939 12.5C37.6564 12.9375 37.672 13.9062 38.1095 14.3125C38.4064 14.5781 38.7189 14.6094 41.8751 14.6094C45.297 14.6094 45.3126 14.6094 45.6095 14.2344C46.0157 13.7344 46.0001 12.9062 45.5626 12.5C45.2345 12.2031 45.0314 12.1875 41.8126 12.1875C38.6095 12.1875 38.3907 12.2031 38.0939 12.5Z" fill="white"/>
<path d="M38.4686 16.7812C37.7186 17.1094 37.5155 18.1719 38.0936 18.75C38.4061 19.0625 38.6092 19.0625 47.4842 19.0625C53.0936 19.0625 56.6561 19 56.8436 18.9062C57.6405 18.4688 57.4374 17.0625 56.5311 16.7344C55.7342 16.4688 39.1092 16.5 38.4686 16.7812Z" fill="white"/>
<path d="M33.5625 22.2969C33.4375 22.3438 32.0781 23.625 30.5625 25.125L27.7812 27.8906L26.5781 26.6875C25.1719 25.3125 24.7812 25.0938 24.0938 25.3906C23.5625 25.6094 23.4062 25.875 23.4062 26.5938C23.4062 27 23.6875 27.3594 25.0938 28.7812C26.75 30.4688 27.3438 30.9375 27.875 30.9375C28.0312 30.9375 29.7188 29.375 31.6406 27.4688C34.4688 24.6562 35.125 23.9062 35.125 23.5781C35.125 22.9375 34.9688 22.6719 34.4844 22.4219C34.0156 22.1719 33.9375 22.1562 33.5625 22.2969Z" fill="white"/>
<path d="M38.5623 24.1719C37.7186 24.5 37.4842 25.6406 38.1248 26.25C38.4529 26.5469 38.6561 26.5625 41.8436 26.5625C45.1717 26.5625 45.2342 26.5625 45.5623 26.2031C46.0154 25.7188 46.0154 24.8438 45.5779 24.4375C45.2811 24.1719 44.9529 24.1406 42.0154 24.1094C40.2498 24.0938 38.6873 24.125 38.5623 24.1719Z" fill="white"/>
<path d="M38.1875 28.9219C37.6094 29.375 37.6094 30.3125 38.1875 30.7656C38.5938 31.0938 38.7344 31.0938 47.5625 31.0938H56.5156L56.9375 30.7344C57.5156 30.2188 57.5156 29.4688 56.9375 28.9531L56.5156 28.5938H47.5625C38.7344 28.5938 38.5938 28.5938 38.1875 28.9219Z" fill="white"/>
<path d="M30.5312 37.0312L27.7031 39.8281L26.3594 38.5156C24.8906 37.0781 24.5469 36.9375 23.8125 37.5156C23.5 37.75 23.4062 37.9688 23.4062 38.4062C23.4062 38.9375 23.5625 39.1406 25.3281 40.9062C27.0312 42.6094 27.2969 42.8125 27.7812 42.8125C28.2812 42.8125 28.5938 42.5312 31.7188 39.4062C34.7656 36.3594 35.125 35.9531 35.125 35.5C35.125 34.8125 34.5312 34.2188 33.8594 34.2188C33.4219 34.2188 33.0156 34.5625 30.5312 37.0312Z" fill="white"/>
<path d="M38.1248 36.4531C37.6248 36.9844 37.6561 37.8438 38.1873 38.2656C38.5779 38.5781 38.7967 38.5938 41.8436 38.5938C44.8904 38.5938 45.1092 38.5781 45.4998 38.2656C46.0467 37.8438 46.0623 36.9219 45.5467 36.4375C45.2029 36.1094 45.0623 36.0938 41.8279 36.0938C38.5154 36.0938 38.4529 36.0938 38.1248 36.4531Z" fill="white"/>
<path d="M38.0938 40.9375C37.7657 41.2656 37.6875 42.0156 37.9375 42.5C38.0157 42.6562 38.3125 42.8593 38.5782 42.9531C39.2813 43.2031 55.8282 43.1875 56.5313 42.9531C57.4375 42.625 57.6407 41.2187 56.8438 40.7812C56.6563 40.6875 53.0938 40.625 47.4844 40.625C38.6094 40.625 38.4063 40.625 38.0938 40.9375Z" fill="white"/>
<path d="M56.3591 54.3124C55.9841 54.7031 55.9841 54.7499 55.9372 58.2499L55.8903 61.7968L55.4685 62.2343L55.0622 62.6562H52.281C49.5153 62.6562 49.4841 62.6562 49.1091 63.0468C48.6403 63.4999 48.6091 64.2031 49.0153 64.7031C49.3122 65.0624 49.3903 65.0781 52.1716 65.1249L55.031 65.1718L55.5466 65.6249C57.1716 67.0624 59.656 66.0468 59.656 63.9374C59.656 63.1718 59.3903 62.5937 58.8122 62.0468L58.406 61.6718V58.1093V54.5468L57.9997 54.2343C57.4372 53.7812 56.8278 53.8124 56.3591 54.3124Z" fill="white"/>
</svg>
