<svg width="76" height="76" viewBox="0 0 76 76" fill="none" xmlns="http://www.w3.org/2000/svg">
<path d="M7.45312 0.890625L7.0625 1.26562V18.9844V36.6875L5.89062 36.8594C3.64062 37.1875 2.10938 38.25 1.17188 40.1562L0.578125 41.3438V56.0469V70.75L1.15625 71.9375C1.85938 73.3594 2.76562 74.2344 4.21875 74.9219L5.26562 75.4219H38.0156H70.75L71.9375 74.8438C73.3594 74.1406 74.2344 73.2344 74.9219 71.7812L75.4219 70.7344V56.0312V41.3438L74.8281 40.1562C73.8906 38.25 72.3594 37.1875 70.1094 36.8594L68.9531 36.6875L68.9062 23.9531L68.8594 11.2031L68.375 10.1719C67.4531 8.23438 65.9062 7.20312 63.4062 6.85938L62.0625 6.6875V3.96875C62.0625 1.3125 62.0625 1.26562 61.6719 0.890625L61.2969 0.5H34.5625H7.82812L7.45312 0.890625ZM59.5625 4.875V6.75H44.9844C29.3281 6.75 29.5781 6.73438 27.9531 7.54688C27.0469 8 13.9375 21.1094 13.4844 22.0156C12.7344 23.5 12.6875 24.0781 12.6875 30.6094V36.75H11.125H9.5625V19.875V3H34.5625H59.5625V4.875ZM63.8438 9.4375C64.7031 9.6875 66 10.9844 66.25 11.8438C66.3906 12.3281 66.4375 15.5469 66.4375 24.625V36.75H63.4375C60.1875 36.7656 59.6719 36.8594 58.7031 37.5938C57.9375 38.1875 57.5938 38.9375 56.125 43.3906C55.1719 46.2969 54.75 47.3906 54.4688 47.6406L54.0781 48H38H21.9219L21.5312 47.6406C21.25 47.3906 20.8281 46.2969 19.875 43.3906C19.1562 41.2344 18.4062 39.1562 18.2031 38.7344C17.7812 37.875 16.8281 37.125 15.8594 36.875L15.1719 36.7031L15.2188 30.875C15.2656 25.0469 15.2656 25.0469 15.625 24.6875C15.9688 24.3281 16.0469 24.3281 20.625 24.25C24.9375 24.1719 25.3281 24.1406 26.125 23.8125C27.7188 23.1719 29.1094 21.7812 29.75 20.1875C30.0781 19.3906 30.1094 19 30.1875 14.7031C30.2656 9.79688 30.2812 9.70312 31.0469 9.40625C31.5781 9.17188 63.0938 9.21875 63.8438 9.4375ZM27.5312 18.9219C27.2969 19.7969 26.5469 20.7344 25.7031 21.2344L24.9531 21.6719L20.9688 21.7188L16.9844 21.7656L22.2969 16.4375L27.6094 11.125L27.6562 14.7344C27.6719 16.8281 27.625 18.5781 27.5312 18.9219ZM15.7188 39.5938C16 39.8594 16.4219 40.9531 17.375 43.8594C18.8438 48.3125 19.1875 49.0625 19.9531 49.6562C21.0938 50.5156 20.3594 50.4844 38 50.4844C55.6406 50.4844 54.9062 50.5156 56.0469 49.6562C56.8125 49.0625 57.1562 48.3125 58.625 43.8594C59.5781 40.9531 60 39.8594 60.2812 39.5938C60.6719 39.25 60.7188 39.25 65.2188 39.25C68.3281 39.25 69.9688 39.3125 70.4062 39.4375C71.2656 39.6875 72.5625 40.9844 72.8125 41.8438C73.0781 42.7656 73.0781 69.4844 72.8125 70.4062C72.5625 71.2656 71.2656 72.5625 70.4062 72.8125C69.4688 73.0938 6.53125 73.0938 5.59375 72.8125C4.73438 72.5625 3.4375 71.2656 3.1875 70.4062C2.92188 69.4844 2.92188 42.7656 3.1875 41.8438C3.42188 41.0469 4.73438 39.7031 5.5 39.4531C5.84375 39.3438 7.78125 39.2812 10.6875 39.2656C15.2969 39.25 15.3281 39.25 15.7188 39.5938Z" fill="white"/>
<path d="M34.6401 22.1406C33.8589 22.9062 34.4058 24.25 35.4995 24.25C36.1401 24.25 36.7495 23.6406 36.7495 23C36.7495 22.3594 36.1401 21.75 35.4995 21.75C35.2026 21.75 34.8745 21.8906 34.6401 22.1406Z" fill="white"/>
<path d="M39.6406 22.1406C39.3906 22.375 39.25 22.7031 39.25 23C39.25 23.2969 39.3906 23.625 39.6406 23.8594L40.0156 24.25H49.875H59.7344L60.1094 23.8594C60.3594 23.625 60.5 23.2969 60.5 23C60.5 22.7031 60.3594 22.375 60.1094 22.1406L59.7344 21.75H49.875H40.0156L39.6406 22.1406Z" fill="white"/>
<path d="M20.8906 30.8906C20.6406 31.125 20.5 31.4531 20.5 31.75C20.5 32.0469 20.6406 32.375 20.8906 32.6094L21.2656 33H40.5H59.7344L60.1094 32.6094C60.625 32.1094 60.625 31.3906 60.1094 30.8906L59.7344 30.5H40.5H21.2656L20.8906 30.8906Z" fill="white"/>
<path d="M23.3906 39.6406C23.1406 39.875 23 40.2031 23 40.5C23 40.7969 23.1406 41.125 23.3906 41.3594L23.7656 41.75H38.625H53.4844L53.8594 41.3594C54.375 40.8594 54.375 40.1406 53.8594 39.6406L53.4844 39.25H38.625H23.7656L23.3906 39.6406Z" fill="white"/>
<path d="M22.156 58.2502C21.0623 58.5939 19.8279 59.8595 19.4998 60.9689C18.9685 62.7345 19.3279 64.1877 20.5623 65.4377C21.9685 66.8283 20.8904 66.7502 37.9998 66.7502C55.1092 66.7502 54.031 66.8283 55.4373 65.4377C57.2029 63.6564 57.2029 61.0939 55.4373 59.3127C54.031 57.922 55.1248 58.0002 37.9373 58.0158C25.0623 58.0158 22.8123 58.0627 22.156 58.2502ZM53.656 61.0939C54.0935 61.5314 54.1717 61.7033 54.1717 62.3752C54.1717 63.047 54.0935 63.2189 53.656 63.6564L53.156 64.172H37.9998H22.8435L22.3435 63.6564C21.906 63.2189 21.8279 63.047 21.8279 62.3908C21.8279 61.5783 22.2342 60.9377 22.9217 60.6408C23.0935 60.5783 29.9685 60.5314 38.1873 60.547L53.156 60.5783L53.656 61.0939Z" fill="white"/>
</svg>
