<svg width="78" height="78" viewBox="0 0 78 78" fill="none" xmlns="http://www.w3.org/2000/svg">
<path fill-rule="evenodd" clip-rule="evenodd" d="M30.875 6.96875C23.0156 10.75 16.5625 13.8438 16.5469 13.8438C16.5156 13.8438 16.5 13.3125 16.5 12.6719V11.5H15.25H14V22.125V32.7344L15.3281 32.7812L16.6406 32.8281L14.3906 36.4375L11.5 40.5L6.34375 32.8438C6.34375 32.7969 6.9375 32.75 7.67188 32.75H9V19.625V6.5H7.75H6.5V18.375V30.25H4.15625C2.875 30.25 1.8125 30.2812 1.8125 30.3281C1.8125 30.375 3.1875 32.6094 4.85938 35.2812L11.5 44.5L18.125 35.1719L21.1562 30.3281L18.8281 30.2812L16.5 30.2344V26.5V22.75H44.625H72.75V49V75.25H71.5H70.25V52.75V30.25H60.25H50.25V29V27.75H39H27.75V42.75V57.75H25.25H0.25V59V77.75H37.75H75.25V50.25V22.75H76.5H77.75L77.7188 19.2031L77.6719 15.6562L61.5 7.89062C52.6094 3.60938 45.2969 0.109375 45.25 0.109375C45.2031 0.109375 38.7344 3.20312 30.875 6.96875ZM75.1719 17.2344L60.25 10.0781C52.0469 6.14062 45.2656 2.92188 45.1719 2.92188C45.0938 2.9375 38.625 6.01562 30.7969 9.78125L16.5781 16.625L16.5312 18.4375L16.4844 20.25H45.875H75.2656L75.2188 18.75L75.1719 17.2344ZM35.25 35.25V32.75V30.25H32.75H30.25V36.5V42.75H39H47.75V36.5V30.25H45.25H42.75V32.75V35.25H39H35.25ZM40.25 32.75V31.5V30.25H39H37.75V31.5V32.75H39H40.25ZM65.25 32.75H62.75H60.25H59H57.75H55.25H52.75H50.25V39V45.25H59H67.75V39V32.75H65.25ZM45.25 45.25H42.75H40.25H39H37.75H36.25H32.75H30.25V51.5V57.75H36.5H42.75V66.5V75.25H45.25H47.75V60.25V45.25H45.25ZM65.25 47.75H62.75H60.25H59H57.75H55.25H52.75H50.25V54V60.25H59H67.75V54V47.75H65.25ZM17.75 60.25H15.25H12.75H11.5H10.25H7.75H5.25H2.75V67.75V75.25H11.5H20.25V67.75V60.25H17.75ZM27.75 65.25V62.75V60.25H25.25H22.75V67.75V75.25H31.5H40.25V67.75V60.25H37.75H35.25V62.75V65.25H31.5H27.75ZM32.75 62.75V61.5V60.25H31.5H30.25V61.5V62.75H31.5H32.75ZM55.25 67.75V65.25V62.75H52.75H50.25V69V75.25H59H67.75V69V62.75H65.25H62.75V65.25V67.75H59H55.25ZM60.25 65.25V64V62.75H59H57.75V64V65.25H59H60.25Z" fill="white"/>
</svg>
