<svg width="80" height="80" viewBox="0 0 80 80" fill="none" xmlns="http://www.w3.org/2000/svg">
<g clip-path="url(#clip0_2001_318)">
<path d="M0.984683 0.312195C-0.0778175 0.95282 0.000307544 -2.50031 0.000307544 40.0309C0.000307544 77.9216 0.000307531 78.5153 0.312808 79.0153C0.953433 80.0778 -2.49969 79.9997 40.0316 79.9997C77.9222 79.9997 78.5159 79.9997 79.0159 79.6872C80.0316 79.0778 80.0003 79.3278 80.0003 69.9684C80.0003 61.8278 79.9847 61.4684 79.6878 60.9841C79.0472 59.9216 81.516 59.9997 49.2191 59.9997H20.0003V30.7809C20.0003 -1.51593 20.0784 0.95282 19.0159 0.312195C18.5316 0.0153198 18.1722 -0.000305176 10.0003 -0.000305176C1.82843 -0.000305176 1.46906 0.0153198 0.984683 0.312195ZM17.3441 6.64032V10.6247H13.2503C8.79718 10.6247 8.53156 10.6716 8.15656 11.4684C7.89093 11.9841 8.01593 12.5466 8.46906 12.9684C8.79718 13.2653 9.00031 13.2809 13.0784 13.2809H17.3441V15.9372V18.5934H16.1409C14.4222 18.5934 13.7972 18.7966 13.4847 19.4684C13.2347 19.9528 13.2347 20.0466 13.4847 20.5309C13.7972 21.2028 14.4222 21.4059 16.1409 21.4059H17.3441V24.0622V26.7184H13.0472C8.98468 26.7184 8.73468 26.7341 8.43781 27.0309C8.01593 27.4528 7.90656 28.0309 8.15656 28.5309C8.53156 29.3278 8.79718 29.3747 13.2503 29.3747H17.3441V32.0309V34.6872H15.7972C14.3753 34.6872 14.2034 34.7184 13.8128 35.0622C13.2034 35.5778 13.2034 36.4528 13.8128 36.9684C14.2034 37.3122 14.3753 37.3434 15.7972 37.3434H17.3441V39.9997V42.6559H13.1097H8.87531L8.42218 43.1091C8.15656 43.3903 7.96906 43.7341 7.96906 43.9841C7.96906 44.2341 8.15656 44.5778 8.42218 44.8591L8.87531 45.3122H13.1097H17.3441V47.9684V50.6247H15.9534C14.2816 50.6247 13.8441 50.7653 13.5159 51.4059C13.2347 51.9528 13.3128 52.4059 13.7972 52.9216C14.0941 53.2497 14.2503 53.2809 15.7347 53.2809H17.3441V56.6403V59.9997H13.1097H8.87531L8.42218 60.4528C7.82843 61.0466 7.82843 61.6091 8.42218 62.2028L8.87531 62.6559H13.1097H17.3441V67.5778V72.5153L17.7347 72.8903C17.9847 73.1559 18.2816 73.2809 18.6722 73.2809C19.0628 73.2809 19.3597 73.1559 19.6097 72.8903L20.0003 72.5153V67.5778V62.6559H23.3597H26.7191V64.2653C26.7191 65.7497 26.7503 65.9059 27.0784 66.2028C27.5784 66.6716 28.0472 66.7653 28.5628 66.4997C29.2034 66.1716 29.3753 65.6403 29.3753 64.0622V62.6559H32.0316H34.6878V66.8903V71.1247L35.1566 71.5934C35.5628 71.9841 35.7191 72.0466 36.1409 71.9684C36.4222 71.9216 36.7972 71.7028 37.0003 71.4684C37.3441 71.0778 37.3441 71.0153 37.3441 66.8591V62.6559H40.0003H42.6566V64.2028C42.6566 65.6247 42.6878 65.7966 43.0316 66.1872C43.5472 66.7966 44.4222 66.7966 44.9378 66.1872C45.2816 65.7966 45.3128 65.6247 45.3128 64.2028V62.6559H47.9691H50.6253V66.7497C50.6253 71.2028 50.6722 71.4684 51.4691 71.8434C51.9847 72.1091 52.5472 71.9841 52.9691 71.5309C53.2659 71.2028 53.2816 70.9997 53.2816 66.9216V62.6559H55.9378H58.5941V63.8591C58.5941 65.5622 58.7972 66.2028 59.4378 66.4997C59.8909 66.7184 60.0003 66.7184 60.5003 66.5153C61.2034 66.2184 61.4066 65.6247 61.4066 63.8591V62.6559H64.0628H66.7191V66.9216C66.7191 70.9997 66.7347 71.2028 67.0316 71.5309C67.4534 71.9841 68.0159 72.1091 68.5316 71.8434C69.3284 71.4684 69.3753 71.2028 69.3753 66.7497V62.6559H73.3597H77.3441V69.9997V77.3434H40.0003H2.65656V39.9997V2.65594H10.0003H17.3441V6.64032Z" fill="white"/>
<path d="M67.8125 0.249683C67.3438 0.374683 66.6406 0.655933 66.25 0.890308C65.4844 1.31218 32.9531 33.6872 32.5781 34.3747C32.4688 34.5934 30.8125 38.4841 28.9219 43.0153C26.0156 49.9215 25.4688 51.3747 25.4688 51.9997C25.4688 52.8903 25.8906 53.6247 26.7031 54.1715C27.7969 54.9059 27.9688 54.859 36.8281 51.1559C41.2812 49.2966 45.1719 47.6403 45.4688 47.4841C45.7656 47.3434 53.4062 39.7966 62.4375 30.7497C80.375 12.7809 79.5 13.7497 79.8906 11.4997C80.1094 10.2341 79.9062 8.85906 79.2969 7.54656C78.9688 6.82781 78.3594 6.10906 76.2188 3.95281C73.375 1.09343 72.5469 0.499683 70.9688 0.171558C69.875 -0.0628166 68.8594 -0.0315666 67.8125 0.249683ZM71.2344 3.06218C71.9375 3.35906 76.4844 7.82781 76.8906 8.64031C77.3594 9.53093 77.4219 10.5622 77.1094 11.6559C76.8594 12.5309 76.7031 12.7341 73.7031 15.7497L70.5625 18.9059L69.625 17.9684L68.6719 17.0309L69.6406 16.0622C70.75 14.9372 71 14.4216 70.7656 13.7966C70.5469 13.2341 70.1719 12.9841 69.5312 12.9684C69.0469 12.9684 68.8281 13.1091 67.8906 14.0622L66.7969 15.1559L63.9531 12.3122L61.0938 9.45281L63.9375 6.59343C66.7344 3.78093 67.6562 3.04656 68.6406 2.79656C69.2812 2.64031 70.5156 2.76531 71.2344 3.06218ZM67.1875 22.2497L65.7969 23.6559L64.625 22.5309C63.6562 21.5778 63.3906 21.4059 62.9375 21.4059C62.5781 21.4059 62.2969 21.5153 62.0781 21.7497C61.3438 22.5778 61.5 23.1091 62.8906 24.5309L63.9062 25.5466L55.3438 34.1091L46.7812 42.6716L46.2969 41.9684C45.7656 41.2184 44.5312 40.4684 43.8438 40.4684C43.5312 40.4684 43.4219 40.3747 43.3438 40.0466C43.1875 39.2966 42.75 38.3747 42.3125 37.8903C41.9062 37.4059 40.7812 36.8278 39.9531 36.6403C39.625 36.5778 39.5312 36.4684 39.5312 36.1247C39.5312 35.4997 38.6094 34.0466 37.9219 33.6091L37.3281 33.2184L45.8906 24.6559L54.4531 16.0934L56.4844 18.1091C57.6406 19.2653 58.6875 20.1716 58.9219 20.2341C59.4062 20.3591 60.2188 19.9997 60.375 19.6091C60.4219 19.4684 60.4688 19.1247 60.4688 18.8591C60.4688 18.4372 60.1719 18.0778 58.4062 16.2966L56.3281 14.2184L57.7344 12.8122L59.1406 11.4059L63.8594 16.1247L68.5938 20.8591L67.1875 22.2497ZM36.0938 35.6247C36.1719 35.6247 36.375 35.7809 36.5625 35.9684C36.9688 36.4216 36.9688 37.2341 36.5312 37.8122C35.5156 39.1872 37.0625 40.6872 38.4531 39.6559C39.8438 38.6247 41.375 40.0153 40.4062 41.4528C39.9062 42.1872 39.8906 42.9059 40.3438 43.3903C40.7812 43.8591 41.6719 43.8747 42.2344 43.4372C43.0469 42.7966 44.2188 43.1559 44.4688 44.1403C44.6562 44.9216 44.2969 45.1559 40.0625 46.9059C37.8281 47.8278 35.9062 48.6247 35.7656 48.6716C35.5781 48.7497 35.3906 48.5622 35.0625 48.0153C34.4531 46.9528 33.2188 45.7028 32.1562 45.0466C31.5156 44.6403 31.2656 44.4059 31.3281 44.2341C31.375 44.0934 32.1719 42.1559 33.0938 39.9216C34.4219 36.7341 34.875 35.8122 35.1719 35.6716C35.375 35.5622 35.6406 35.4997 35.75 35.5466C35.875 35.5934 36.0312 35.6247 36.0938 35.6247ZM30.7812 47.2809C31.875 48.0153 33.1562 49.5778 32.875 49.8434C32.7188 49.984 28.2344 51.8747 28.1719 51.8122C28.125 51.7809 29.9375 47.4216 30.0938 47.1716C30.2031 46.9684 30.3438 46.9997 30.7812 47.2809Z" fill="white"/>
<path d="M72.5319 9.45305C71.3287 10.4687 72.485 12.1874 73.985 11.6249C74.2819 11.4999 74.6881 10.7655 74.6881 10.328C74.6881 9.87492 74.0631 9.2343 73.5006 9.12492C73.1256 9.06242 72.9225 9.12492 72.5319 9.45305Z" fill="white"/>
<path d="M47.8594 26.4531C42.0938 32.2031 41.875 32.4531 41.875 33.0156C41.875 33.7812 42.4375 34.375 43.1562 34.375C43.625 34.375 44.2188 33.8281 49.7188 28.3125C55.2344 22.8125 55.7812 22.2188 55.7812 21.75C55.7812 21.0312 55.1875 20.4688 54.4219 20.4688C53.8594 20.4688 53.6094 20.6875 47.8594 26.4531Z" fill="white"/>
<path d="M51.6719 30.2812C46.1875 35.7812 45.625 36.3906 45.625 36.8438C45.625 37.5625 46.2188 38.125 46.9844 38.125C47.5469 38.125 47.7969 37.9062 53.5469 32.1406C59.3125 26.3906 59.5312 26.1406 59.5312 25.5781C59.5312 24.8125 58.9844 24.2188 58.25 24.2188C57.7812 24.2188 57.2031 24.7344 51.6719 30.2812Z" fill="white"/>
</g>
<defs>
<clipPath id="clip0_2001_318">
<rect width="80" height="80" fill="white"/>
</clipPath>
</defs>
</svg>
