<svg width="80" height="80" viewBox="0 0 80 80" fill="none" xmlns="http://www.w3.org/2000/svg">
<path fill-rule="evenodd" clip-rule="evenodd" d="M40.5501 9.41611L40.118 9.74847V18.6223V38.1148L37.1767 38.1813C34.3351 38.2311 34.1855 38.2478 33.3713 38.6798C32.8894 38.9291 32.2413 39.4442 31.9255 39.8264C30.8121 41.1226 30.8121 41.106 30.8121 50.3122V58.5878H29.3996H27.9871V50.146V41.7208L27.5883 40.89C26.8571 39.2947 25.0458 38.148 23.301 38.148H22.6695L20.1768 38.1148L18.3157 38.1813C16.604 38.2311 16.3548 38.281 15.5405 38.7297C14.0782 39.5273 13.0312 41.2888 13.0312 42.9173V43.4657V45.9583V49.4481V52.9378V55.4304V57.0091V58.5878H9.47507C6.15153 58.5878 5.90227 58.6044 5.48683 58.9367L5.05477 59.2691L5.02153 66.7803L4.97168 74.2915V77L30.1973 76.834C57.2509 76.8506 71.9741 76.8173 72.2566 76.701C73.1706 76.3521 73.1872 76.485 71.459 65.9494L69.8637 56.1782V46.4403C69.8637 39.76 69.8138 36.5361 69.6809 36.1705C69.3651 35.2898 68.5675 35.0738 67.8031 35.672L67.371 36.0044V46.191V56.361L68.7835 64.9856L68.9715 66.1295C69.6686 70.3722 70.2333 73.8092 70.2791 73.9923L70.3622 74.3746H66.9556H63.549V66.9963C63.549 62.9416 63.4991 59.4851 63.4492 59.3356C63.2831 58.9367 62.4854 58.5878 61.7044 58.5878H61.0231L61.1394 57.9563C61.2059 57.6239 61.2889 50.7775 61.3388 42.7511L61.4053 28.1774H64.3798H67.371V29.806C67.371 31.3016 67.4042 31.4677 67.7532 31.8001C68.5176 32.5313 69.5812 32.0826 69.7806 30.9692C69.8304 30.6701 69.847 23.4082 69.8304 14.8335L69.7806 9.86478L69.2987 9.46597L68.8334 9.05052L64.197 9.10037C60.026 9.15023 59.5441 9.18346 59.2782 9.44935C58.9957 9.73184 58.9791 3.7661 58.8794 28.1442C58.8295 45.3269 58.7298 57.4412 58.6301 57.84L58.4806 58.5047L54.9576 58.5545L51.4181 58.5878L51.3516 58.2222C50.9694 56.5272 50.9195 54.9651 50.9195 46.0082V36.1373L50.5041 35.7385C49.9889 35.2067 49.3575 35.2067 48.8423 35.7385L48.4269 36.1373L48.4435 46.1578C48.4435 53.6025 48.4933 56.4939 48.6595 57.3747L48.8755 58.5878H47.3301H45.7847L45.7348 50.0629L45.685 41.5547L45.2695 40.757C44.8208 39.8597 44.0398 39.0953 43.1757 38.6798L42.6107 38.4139V33.2957V28.1774H45.5188H48.4269V29.7561C48.4269 31.2185 48.4601 31.3847 48.8423 31.7502C49.3575 32.282 49.9889 32.282 50.5041 31.7502L50.9195 31.3514V15.2988V9.8814L50.5041 9.48258L50.1053 9.06714H45.552C41.1982 9.06714 40.9822 9.08376 40.5501 9.41611ZM48.4269 20.0348V16.9605V13.8863H45.5188H42.6107V16.9605V20.0348H45.5188H48.4269ZM67.371 20.0348L67.3378 16.9938L67.2879 13.9693L64.3466 13.9195L61.3887 13.8863V16.9605V20.0348H64.3798H67.371ZM48.4269 25.6848V24.1061V22.5274H45.5188H42.6107V24.1061V25.6848H45.5188H48.4269ZM67.2879 25.6017V24.1061V22.6105L64.3466 22.5607L61.3887 22.5274V24.1061V25.6848L64.3466 25.6516L67.2879 25.6017ZM25.1455 41.6045C24.9461 41.322 24.5307 40.9897 24.2316 40.8733C23.8161 40.7072 22.8357 40.6407 20.476 40.6407C16.8865 40.6407 16.5376 40.7404 15.8563 41.8372C15.5571 42.3357 15.5239 42.6847 15.5239 46.2408V50.1128H20.5092H25.4945V46.1079C25.4945 42.2858 25.4779 42.0864 25.1455 41.6045ZM42.943 41.7208C42.7603 41.4217 42.3448 41.0561 42.0457 40.9066C41.5804 40.6905 40.8825 40.6407 38.2569 40.6407C38.1403 40.6411 38.0264 40.6414 37.9152 40.6417C35.6909 40.6476 34.5391 40.6507 33.943 41.2277C33.3028 41.8474 33.3034 43.1291 33.3047 45.787C33.3047 45.9077 33.3048 46.0313 33.3048 46.1578V50.1128H38.2901H43.2754V46.191C43.2754 42.5351 43.2588 42.2194 42.943 41.7208ZM25.4945 58.5878V55.5966V52.6054H20.5092H15.5239V55.5966V58.5878H20.5092H25.4945ZM43.2754 58.5878V55.5966V52.6054H38.2901H33.3048V55.5966V58.5878H38.2901H43.2754ZM61.0563 74.3746V67.7275V61.0804H34.3019H7.54742V67.7275V74.3746H34.3019H61.0563Z" fill="white"/>
<path d="M10.3227 64.4208C10.0069 64.67 9.89062 64.9193 9.89062 65.3181C9.89062 65.717 10.0069 65.9662 10.3227 66.2155C10.7381 66.5478 10.9874 66.5645 13.962 66.5645C16.9365 66.5645 17.1858 66.5478 17.6012 66.2155C17.917 65.9662 18.0333 65.717 18.0333 65.3181C18.0333 64.9193 17.917 64.67 17.6012 64.4208C17.1858 64.0884 16.9365 64.0718 13.962 64.0718C10.9874 64.0718 10.7381 64.0884 10.3227 64.4208Z" fill="white"/>
<path d="M23.8324 64.3875C23.5499 64.6036 23.4502 64.8695 23.4502 65.3181C23.4502 65.7668 23.5499 66.0327 23.8324 66.2487C24.1814 66.5312 24.547 66.5645 27.5049 66.5645C30.4629 66.5645 30.8284 66.5312 31.1774 66.2487C31.4599 66.0327 31.5596 65.7668 31.5596 65.3181C31.5596 64.8695 31.4599 64.6036 31.1774 64.3875C30.8284 64.105 30.4629 64.0718 27.5049 64.0718C24.547 64.0718 24.1814 64.105 23.8324 64.3875Z" fill="white"/>
<path d="M37.4097 64.4208C36.8447 64.8695 36.8281 65.6006 37.3931 66.149C37.7919 66.5645 37.8085 66.5645 41.0157 66.5645C44.0235 66.5645 44.2728 66.5478 44.6882 66.2155C45.004 65.9662 45.1203 65.717 45.1203 65.3181C45.1203 64.9193 45.004 64.67 44.6882 64.4208C44.2728 64.0884 44.0235 64.0718 41.049 64.0718C38.0744 64.0718 37.8251 64.0884 37.4097 64.4208Z" fill="white"/>
<path d="M51.1361 64.1881C51.0198 64.238 50.8204 64.4872 50.6708 64.7697C50.4548 65.1852 50.4548 65.3514 50.621 65.7502C50.7207 66.0327 50.9533 66.3152 51.1195 66.3983C51.2857 66.498 52.881 66.5645 54.6757 66.5645C57.9161 66.5645 57.9327 66.5645 58.3316 66.149C58.5642 65.933 58.747 65.5508 58.747 65.3181C58.747 65.0855 58.5642 64.7033 58.3316 64.4872C57.9327 64.0718 57.9161 64.0718 54.6424 64.0884C52.8311 64.0884 51.2524 64.1383 51.1361 64.1881Z" fill="white"/>
<path d="M10.3229 69.2391C9.75791 69.6878 9.72467 70.5187 10.2731 71.0172C10.6386 71.3662 10.8048 71.3828 13.9788 71.3828C17.2525 71.3828 17.3189 71.3828 17.6679 71.0006C18.1831 70.4522 18.1498 69.6712 17.6014 69.2391C17.186 68.9068 16.9367 68.8902 13.9622 68.8902C10.9876 68.8902 10.7383 68.9068 10.3229 69.2391Z" fill="white"/>
<path d="M24.0812 69.0563C23.2835 69.3721 23.217 70.8012 23.9981 71.2C24.1975 71.3163 25.5934 71.3828 27.5543 71.3828C30.4624 71.3828 30.8279 71.3496 31.1769 71.0671C31.4594 70.851 31.5591 70.5852 31.5591 70.1365C31.5591 69.6878 31.4594 69.4219 31.1769 69.2059C30.8279 68.9234 30.479 68.8901 27.6041 68.9068C25.8593 68.9068 24.2806 68.9732 24.0812 69.0563Z" fill="white"/>
<path d="M37.3928 69.3056C36.8611 69.8208 36.8444 70.5353 37.3596 71.0172C37.7252 71.3662 37.8914 71.3828 41.0653 71.3828C44.339 71.3828 44.4055 71.3828 44.7544 71.0006C45.2696 70.4522 45.2364 69.6712 44.688 69.2391C44.2725 68.9068 44.0233 68.8902 41.0155 68.8902C37.8083 68.8902 37.7917 68.8902 37.3928 69.3056Z" fill="white"/>
<path d="M51.1516 69.0896C50.57 69.3721 50.354 70.0866 50.6697 70.6849C50.8026 70.9508 51.0519 71.2166 51.1848 71.2831C51.3344 71.333 52.9131 71.3828 54.6912 71.3828C57.915 71.3828 57.9316 71.3828 58.3304 70.9674C58.5631 70.7513 58.7459 70.3691 58.7459 70.1365C58.7459 69.9038 58.5631 69.5216 58.3304 69.3056C57.9316 68.8901 57.915 68.8901 54.7244 68.9068C52.8466 68.9068 51.3676 68.9899 51.1516 69.0896Z" fill="white"/>
</svg>
