<svg width="80" height="80" viewBox="0 0 80 80" fill="none" xmlns="http://www.w3.org/2000/svg">
<path d="M7.28125 2.67188C6.3125 2.90625 4.89062 3.73438 4.20312 4.48438C3.85938 4.85938 3.34375 5.64062 3.07812 6.21875L2.57812 7.26562V40.0156V72.75L3.15625 73.9375C3.85938 75.3594 4.76562 76.2344 6.21875 76.9219L7.26562 77.4219L21.7656 77.4688L36.25 77.5V76.25V75H22.25C11.7031 75 8.07812 74.9531 7.59375 74.8125C6.73438 74.5625 5.4375 73.2656 5.1875 72.4062C5.04688 71.9062 5 66.5469 5 49.625V27.5H31.25H57.5V35V42.5H58.75H60L59.9688 24.875L59.9219 7.26562L59.4219 6.21875C58.7344 4.76562 57.8594 3.85938 56.4375 3.15625L55.25 2.57812L31.5781 2.54688C17.6094 2.53125 7.64062 2.59375 7.28125 2.67188ZM54.9062 5.1875C55.7656 5.4375 57.0625 6.73438 57.3125 7.59375C57.4531 8.0625 57.5 10.5 57.5 16.625V25H31.25H5V16.625C5 10.5 5.04688 8.0625 5.1875 7.59375C5.42188 6.79688 6.73438 5.45312 7.5 5.20312C8.32812 4.9375 54.0312 4.9375 54.9062 5.1875Z" fill="white"/>
<path d="M8.98426 7.71875C8.34363 8 7.68738 8.79687 7.57801 9.42187C7.53113 9.70312 7.49988 12.3906 7.53113 15.4219C7.57801 20.6875 7.59363 20.9375 7.90613 21.3437C8.07801 21.5781 8.42176 21.9219 8.65613 22.0937C9.07801 22.4219 9.10926 22.4219 31.2499 22.4219C53.3905 22.4219 53.4218 22.4219 53.8436 22.0937C54.078 21.9219 54.4218 21.5781 54.5936 21.3437C54.9061 20.9219 54.9218 20.7344 54.9218 15C54.9218 9.26562 54.9061 9.07812 54.5936 8.65625C54.4218 8.42187 54.078 8.07812 53.8436 7.90625C53.4218 7.57812 53.3592 7.57812 31.4374 7.54687C13.3905 7.51562 9.37488 7.54687 8.98426 7.71875ZM52.4999 15V20H31.2499H9.99988V15V10H31.2499H52.4999V15Z" fill="white"/>
<path d="M25 15V16H30H35V15V14H30H25V15Z" fill="white"/>
<path d="M8.98437 32.7188C8.34375 33 7.6875 33.7969 7.57812 34.4219C7.53125 34.7031 7.51563 42.4531 7.53125 51.6719C7.57812 68.2969 7.57812 68.4219 7.90625 68.8438C8.07812 69.0781 8.42187 69.4219 8.65625 69.5938C9.07812 69.9219 9.25 69.9219 20.1719 69.9688L31.25 70V68.75V67.5H28.125H25V60V52.5H28.125H31.25V51.25V50H28.125H25V42.5V35H31.25H37.5V38.75V42.5H38.75H40V38.75V35H46.25H52.5V38.125V41.25H53.7656H55.0156L54.9687 37.6719C54.9219 33.7344 54.9062 33.6875 53.8437 32.9062C53.4219 32.5781 53.3594 32.5781 31.4375 32.5469C13.3906 32.5156 9.375 32.5469 8.98437 32.7188ZM22.5 42.5V50H16.25H10V42.5V35H16.25H22.5V42.5ZM22.5 60V67.5H16.25H10V60V52.5H16.25H22.5V60Z" fill="white"/>
<path d="M15 40V41.25H13.75H12.5V42.5V43.75H13.75H15V45V46.25H16.25H17.5V45V43.75H18.75H20V42.5V41.25H18.75H17.5V40V38.75H16.25H15V40Z" fill="white"/>
<path d="M12.5 60V61.25H16.25H20V60V58.75H16.25H12.5V60Z" fill="white"/>
<path fill-rule="evenodd" clip-rule="evenodd" d="M45.8911 42.7344C39.5161 43.8125 34.2348 48.2812 32.1723 54.3125C29.0161 63.5781 33.9692 73.5 43.3286 76.6406C45.9536 77.5156 49.7817 77.7188 52.3129 77.1094C53.2504 76.8906 57.001 75.5 57.7661 75L58.8911 74.2031C60.0942 73.3594 62.0317 71.5 62.6567 70.5781L63.0473 70L64.5786 67.5L65.0786 66.125C65.3598 65.375 65.6723 64.3438 65.7817 63.8281C66.0786 62.3438 66.1879 61.7475 66.2973 60L66.1879 58.6875C66.1254 57.9844 65.9536 56.8594 65.7973 56.1875L65.5161 55L64.5317 52.5L64.2036 51.8281C63.7192 50.9062 63.0629 49.9531 62.0004 48.625L61.0786 47.5L57.5786 44.9219L56.2504 44.2656C53.0942 42.7188 49.3286 42.1562 45.8911 42.7344ZM59.3129 49.4375C57.3129 47.4375 55.0942 46.1562 52.3598 45.4531C50.7973 45.0469 47.6723 44.9219 46.1723 45.2188C42.8911 45.8594 40.3754 47.2188 38.0473 49.5938C36.0786 51.6094 34.9536 53.6094 34.2036 56.4063C33.7348 58.125 33.6879 61.6719 34.1098 63.3438C34.8442 66.25 36.1098 68.4844 38.2817 70.625C40.3598 72.6875 42.5629 73.9219 45.4067 74.6406C47.0786 75.0625 50.6254 75.0156 52.3442 74.5469C55.2661 73.7656 57.1723 72.6719 59.2973 70.5469C61.3911 68.4375 62.5317 66.4844 63.3129 63.5938C63.8129 61.75 63.8129 58.3438 63.3129 56.4531C62.5786 53.6406 61.3442 51.4531 59.3129 49.4375Z" fill="white"/>
<path d="M47.5004 50V51.25H46.6254C45.266 51.25 44.5473 51.5312 43.6723 52.4219C42.6722 53.4062 42.5004 53.9844 42.5004 56.25C42.5004 58.5156 42.6722 59.0938 43.6723 60.0781C44.7348 61.1562 45.141 61.25 48.7348 61.25C51.7035 61.25 51.7348 61.25 52.1098 61.6406C52.4848 62 52.5004 62.125 52.5004 63.75C52.5004 65.375 52.4848 65.5 52.1098 65.8594C51.7348 66.25 51.7035 66.25 48.7504 66.25C45.7973 66.25 45.766 66.25 45.391 65.8594C45.1723 65.6562 45.0004 65.375 45.0004 65.2344C45.0004 65.0469 44.766 65 43.7504 65C42.3441 65 42.3441 65 42.6879 66.1562C42.9379 67.0156 44.2348 68.3125 45.0941 68.5625C45.4535 68.6719 46.141 68.75 46.6254 68.75H47.5004V70V71.25H48.7504H50.0004V70V68.75H50.9066C52.266 68.75 53.1566 68.3906 53.9535 67.5C54.8285 66.5312 55.0004 65.9062 55.0004 63.75C55.0004 61.4844 54.8285 60.9062 53.8285 59.9219C52.766 58.8438 52.3598 58.75 48.766 58.75C45.7973 58.75 45.766 58.75 45.391 58.3594C45.016 58 45.0004 57.875 45.0004 56.25C45.0004 54.625 45.016 54.5 45.391 54.1406C45.766 53.75 45.7973 53.75 48.7504 53.75C51.7035 53.75 51.7348 53.75 52.1098 54.1406C52.3285 54.3438 52.5004 54.625 52.5004 54.7656C52.5004 54.9531 52.7348 55 53.7504 55C55.141 55 55.1566 55 54.8129 53.875C54.7191 53.5312 54.3285 52.9062 53.9535 52.5C53.1566 51.6094 52.266 51.25 50.9066 51.25H50.0004V50V48.75H48.7504H47.5004V50Z" fill="white"/>
</svg>
