<svg width="75" height="75" viewBox="0 0 75 75" fill="none" xmlns="http://www.w3.org/2000/svg">
<g clip-path="url(#clip0_2001_1621)">
<path d="M34.3506 7.39746L33.9844 7.74902V16.4062V25.0635L34.3506 25.415L34.7021 25.7812H43.4619H52.207L55.1514 28.7109C57.7734 31.3184 58.1543 31.6406 58.5791 31.6406C58.8867 31.6406 59.165 31.5088 59.3994 31.2744L59.7656 30.9229V19.3359V7.74902L59.3994 7.39746L59.0479 7.03125H46.875H34.7021L34.3506 7.39746ZM57.4219 18.4863V27.5977L55.3271 25.5176L53.2178 23.4375H44.7803H36.3281V16.4062V9.375H46.875H57.4219V18.4863Z" fill="#2B6CFE"/>
<path d="M19.1162 10.9131L18.75 11.2646V22.8516V34.4385L19.1162 34.79C19.3506 35.0244 19.6289 35.1562 19.9365 35.1562C20.3613 35.1562 20.7422 34.834 23.3643 32.2266L26.3086 29.2969H35.0537H43.8135L44.165 28.9307C44.6484 28.4619 44.6484 27.7881 44.165 27.3193L43.8135 26.9531H34.5557H25.2979L23.1885 29.0332L21.0938 31.1133V22.002V12.8906H26.001H30.9229L31.2744 12.5244C31.5088 12.3047 31.6406 11.9971 31.6406 11.7188C31.6406 11.4404 31.5088 11.1328 31.2744 10.9131L30.9229 10.5469H25.1953H19.4678L19.1162 10.9131Z" fill="#2B6CFE"/>
<path d="M12.0406 35.376C9.38927 35.9619 6.88439 37.9102 5.72716 40.3125C4.36486 43.1397 4.35021 45.9082 5.69786 48.6914C6.3424 50.0098 7.52892 51.4307 8.58361 52.1338L9.25743 52.5732L8.70079 52.8076C7.7047 53.2178 5.77111 54.6094 4.68712 55.6934C2.28478 58.0957 0.746692 61.0693 0.219348 64.3652C-0.117566 66.3867 -0.0736206 67.1777 0.365833 67.6025L0.717395 67.9688H37.4996H74.2819L74.6334 67.6025C75.0875 67.1631 75.1168 66.3428 74.7653 64.292C73.9303 59.4873 71.1617 55.5469 66.8844 53.1152C65.9322 52.5732 65.8004 52.4561 66.0641 52.3682C66.5475 52.2217 68.4225 50.2588 68.9645 49.3359C71.1764 45.5859 70.5904 41.001 67.5143 37.9248C63.8668 34.2481 58.0221 34.2481 54.3307 37.9248C52.0602 40.21 51.1227 43.3594 51.7818 46.4941C52.236 48.6182 53.8033 51.0352 55.4293 52.1045L56.0885 52.5439L55.4293 52.8516C53.4518 53.8184 51.0641 55.8838 49.8483 57.6855L49.2477 58.5938L48.5885 57.6855C47.2701 55.8398 45.5563 54.3164 43.4469 53.1152C42.4947 52.5732 42.3629 52.4561 42.6266 52.3682C43.11 52.2217 44.985 50.2588 45.527 49.3359C47.7389 45.5859 47.1529 41.001 44.0768 37.9248C40.4293 34.2481 34.5846 34.2481 30.8932 37.9248C28.0074 40.8105 27.3336 44.9707 29.1354 48.6914C29.7799 50.0098 30.9664 51.4307 32.0211 52.1338L32.6949 52.5732L32.1383 52.8076C30.4391 53.5107 27.7438 55.8105 26.4108 57.6709L25.7516 58.5938L25.151 57.7148C23.9498 55.9277 21.9723 54.1553 19.9361 53.0566C19.0133 52.5586 18.9108 52.4561 19.1744 52.3682C19.6725 52.2217 21.5475 50.2588 22.0895 49.3359C24.3014 45.5859 23.7154 41.001 20.6393 37.9248C18.3981 35.6543 15.1608 34.7022 12.0406 35.376ZM15.7467 37.7197C18.5299 38.4522 20.5807 40.752 20.9908 43.5938C21.5035 47.0801 19.2184 50.4346 15.7467 51.3428C12.0699 52.2949 8.23204 49.9658 7.2506 46.2158C5.94689 41.1914 10.7223 36.416 15.7467 37.7197ZM39.1842 37.7197C41.9674 38.4522 44.0182 40.752 44.4283 43.5938C44.941 47.0801 42.6559 50.4346 39.1842 51.3428C35.5074 52.2949 31.6695 49.9658 30.6881 46.2158C29.3844 41.1914 34.1598 36.416 39.1842 37.7197ZM62.6217 37.7197C65.4049 38.4522 67.4557 40.752 67.8658 43.5938C68.3785 47.0801 66.0934 50.4346 62.6217 51.3428C58.9449 52.2949 55.107 49.9658 54.1256 46.2158C52.8219 41.1914 57.5973 36.416 62.6217 37.7197ZM17.0651 54.4043C19.9068 55.3564 22.2213 57.3047 23.9498 60.1758L24.5065 61.1133L24.1256 62.373C23.9059 63.0762 23.7008 63.9697 23.6569 64.3799C23.5983 64.7754 23.525 65.2295 23.4811 65.3613C23.4225 65.6104 22.7926 65.625 12.9049 65.625H2.38732L2.5045 64.8779C3.22228 60.3369 6.44493 56.2061 10.5465 54.5801C12.524 53.7891 15.0289 53.7305 17.0651 54.4043ZM39.4039 54.1113C44.15 55.1221 48.2369 59.6631 49.0572 64.8486L49.1744 65.625H37.4996H25.8248L25.942 64.8779C26.6598 60.3369 29.8824 56.2061 33.984 54.5801C35.6246 53.9209 37.6901 53.7451 39.4039 54.1113ZM62.8414 54.1113C67.6022 55.1221 71.6744 59.6631 72.4947 64.8779L72.6119 65.625H62.0944H51.5621L51.5035 65.2881C51.4596 65.1123 51.357 64.541 51.2692 64.0137C51.1813 63.4863 50.9615 62.6221 50.8004 62.0947L50.4928 61.1279L51.0494 60.1904C53.7301 55.6201 58.4469 53.1885 62.8414 54.1113Z" fill="#2B6CFE"/>
</g>
<defs>
<clipPath id="clip0_2001_1621">
<rect width="75" height="75" fill="white"/>
</clipPath>
</defs>
</svg>
