<svg width="75" height="76" viewBox="0 0 75 76" fill="white" xmlns="http://www.w3.org/2000/svg">
<g filter="url(#filter0_dd_2001_1590)">
<path d="M34.6703 5.8635C32.2832 6.1096 29.8961 6.63869 27.6936 7.37696C17.53 10.8592 9.8397 19.6569 7.83406 30.1035C7.69871 30.8171 7.56336 31.5185 7.53875 31.6538C7.50184 31.8138 7.35418 31.9492 7.16961 31.9984C7.00966 32.0353 6.67743 32.2445 6.43134 32.4536L6.00068 32.8351V36.0589C6.00068 39.6887 5.93916 39.4303 6.98505 39.984C7.52645 40.267 7.52645 40.267 7.68641 41.2391C8.4739 45.9517 10.7379 50.9351 13.8756 54.8972C15.0691 56.3983 17.7146 58.97 19.2896 60.1512C23.3132 63.1535 27.8167 65.1099 32.5293 65.8974C33.3783 66.0451 33.4029 66.0574 33.6121 66.525C33.8705 67.1156 34.5103 67.6693 35.1502 67.8661C35.7408 68.0384 39.2476 68.0507 39.8751 67.8661C41.77 67.3494 42.3114 64.6301 40.7734 63.3627C40.0966 62.809 39.5921 62.7105 37.4265 62.7105C35.6177 62.7105 35.4209 62.7351 34.8303 63.0058C34.4119 63.2027 34.0674 63.4857 33.8459 63.8056C33.5137 64.2732 33.4768 64.2855 32.9477 64.224C32.64 64.1871 31.5572 63.941 30.5237 63.6826C21.0122 61.2955 13.2604 53.9497 10.2458 44.4998C10.0612 43.9215 9.75357 42.6787 9.5567 41.7313L9.19987 40.0086L9.47057 39.8241C9.63053 39.7256 9.88892 39.5042 10.0489 39.3319C10.6026 38.7413 10.6764 38.3844 10.6764 36.0466C10.6764 33.5364 10.5657 33.1304 9.72896 32.4536L9.23678 32.0599L9.35982 31.297C9.54439 30.0666 10.2334 27.4334 10.7379 26.1045C14.0356 17.2698 21.5413 10.5515 30.6221 8.33672C33.2061 7.70919 34.6949 7.53692 37.5003 7.53692C40.3796 7.53692 42.0161 7.7338 44.5632 8.37363C53.9023 10.7361 61.4204 17.6882 64.5211 26.8059C65.0256 28.2824 65.3579 29.5744 65.6039 30.9648L65.7762 31.9984L65.2963 32.4167C64.3981 33.1796 64.3243 33.4749 64.3243 36.0466C64.3243 38.1753 64.3366 38.3352 64.6073 38.852C64.7672 39.1473 65.1364 39.5534 65.4194 39.7626C65.8993 40.0948 66.0346 40.1317 66.9082 40.1317C67.7818 40.1317 67.9172 40.0948 68.4094 39.7626L68.9385 39.3811L68.9754 36.1081L69 32.8351L68.5693 32.4536C68.3356 32.2445 68.0033 32.0476 67.8311 31.9984C67.5973 31.9369 67.5111 31.8138 67.4496 31.4693C66.699 27.0519 65.3948 23.5328 63.2169 20.0137C59.1317 13.4308 52.598 8.64433 45.0676 6.72482C44.0587 6.46643 42.5821 6.15881 41.8069 6.04807C40.1581 5.81429 36.1715 5.70355 34.6703 5.8635ZM8.63386 33.8071L8.95377 34.0532V36.022C8.95377 37.8184 8.92917 38.003 8.70768 38.2245C8.57233 38.3598 8.30163 38.4706 8.09246 38.4706C7.88328 38.4706 7.61258 38.3598 7.47723 38.2245C7.25575 38.003 7.23114 37.8184 7.23114 36.022V34.0532L7.55106 33.8071C7.73562 33.6595 7.96941 33.5488 8.09246 33.5488C8.2155 33.5488 8.44929 33.6595 8.63386 33.8071ZM67.4496 33.8071L67.7695 34.0532V36.022C67.7695 37.8184 67.7449 38.003 67.5235 38.2245C67.3881 38.3598 67.1174 38.4706 66.9082 38.4706C66.699 38.4706 66.4283 38.3598 66.293 38.2245C66.0715 38.003 66.0469 37.8184 66.0469 36.022V34.0532L66.3668 33.8071C66.5514 33.6595 66.7852 33.5488 66.9082 33.5488C67.0313 33.5488 67.2651 33.6595 67.4496 33.8071ZM39.6413 64.6916C39.8751 64.8761 39.9613 65.0607 39.9613 65.356C39.9613 65.6513 39.8751 65.8359 39.6413 66.0205C39.346 66.2543 39.1492 66.2789 37.4757 66.2789C35.6916 66.2789 35.63 66.2666 35.347 65.9712C35.1748 65.8113 35.0394 65.5283 35.0394 65.356C35.0394 65.1838 35.1748 64.9008 35.347 64.7408C35.63 64.4455 35.6916 64.4332 37.4757 64.4332C39.1492 64.4332 39.346 64.4578 39.6413 64.6916Z" fill="#2B6CFE"/>
<path d="M36.0236 13.5174C29.1823 13.8742 22.624 17.664 18.7357 23.5087C11.5991 34.2382 14.7737 48.5484 25.8109 55.3652C29.6991 57.7522 34.6332 58.9335 39.2105 58.5643C41.0931 58.4044 43.2464 57.9614 44.8706 57.4077C46.421 56.8663 49.2018 55.439 50.543 54.4915C51.958 53.4949 54.2344 51.317 55.2803 49.9758C62.1831 41.1534 61.6171 28.775 53.9637 20.5556C52.118 18.5868 49.8417 16.9257 47.2946 15.6953C43.7386 13.9726 40.1949 13.2959 36.0236 13.5174ZM41.6222 15.5722C44.4153 16.1752 47.3561 17.4425 49.5587 19.0052C51.0598 20.0634 53.4469 22.4505 54.5174 23.9516C55.5018 25.342 56.7937 27.8768 57.3105 29.4518C59.3408 35.5917 58.4425 42.1993 54.8496 47.601C51.6012 52.4982 46.5071 55.7343 40.5148 56.6941C39.1367 56.9278 35.6299 56.8909 34.178 56.6448C27.472 55.5005 21.7996 51.2801 18.7603 45.177C16.3856 40.4028 16.0041 34.4351 17.7637 29.3533C20.0769 22.5981 25.5525 17.5533 32.4184 15.8183C34.5225 15.2892 35.1131 15.2277 37.8693 15.2646C39.8873 15.3015 40.6378 15.3631 41.6222 15.5722Z" fill="#2B6CFE"/>
<path d="M35.8517 25.736C33.4769 26.3389 31.459 28.2461 30.7207 30.5963C30.2162 32.1959 30.4008 34.2508 31.1883 35.8134L31.4959 36.4287L31.1513 36.6748C29.6748 37.7453 29.2072 38.5327 28.2229 41.5966C27.2631 44.6235 27.2754 44.5251 27.4354 45.0911C27.6199 45.7678 28.1983 46.3092 28.9119 46.4569C29.6502 46.6168 45.2893 46.6292 46.1137 46.4815C46.5074 46.3954 46.7781 46.2354 47.1104 45.8909C47.8732 45.0665 47.8609 44.8204 46.8643 41.7688C45.7938 38.5327 45.2647 37.6345 43.8004 36.6132L43.5174 36.4164L43.7635 35.998C44.1573 35.3213 44.4895 34.1523 44.5756 33.1803C44.8463 30.0672 42.7053 26.8557 39.7276 25.9083C38.6694 25.5637 36.8361 25.4899 35.8517 25.736ZM38.6325 27.4094C41.3395 27.9877 43.2836 30.7809 42.8161 33.4141C42.4469 35.5181 41.0688 37.13 39.1124 37.733C35.987 38.705 32.6648 36.6502 32.2341 33.451C31.9881 31.6791 32.5541 30.018 33.7968 28.8368C35.1749 27.5202 36.8361 27.028 38.6325 27.4094ZM33.28 38.3113C35.7409 40.1939 39.4446 40.1693 41.8563 38.2374C42.1147 38.0283 42.3977 37.856 42.4838 37.856C42.7792 37.856 43.9112 39.0003 44.2311 39.6279C44.6002 40.3538 45.9906 44.5866 45.8922 44.685C45.8553 44.7219 42.0655 44.7466 37.4759 44.7466C29.9332 44.7466 29.1334 44.7219 29.1334 44.5497C29.1334 44.1928 30.5115 40.1446 30.8314 39.5417C31.1637 38.9142 32.2341 37.856 32.5295 37.856C32.6279 37.856 32.9601 38.0529 33.28 38.3113Z" fill="#2B6CFE"/>
</g>
<defs>
<filter id="filter0_dd_2001_1590" x="-4" y="0" width="83" height="83" filterUnits="userSpaceOnUse" color-interpolation-filters="sRGB">
<feFlood flood-opacity="0" result="BackgroundImageFix"/>
<feColorMatrix in="SourceAlpha" type="matrix" values="0 0 0 0 0 0 0 0 0 0 0 0 0 0 0 0 0 0 127 0" result="hardAlpha"/>
<feOffset dy="4"/>
<feGaussianBlur stdDeviation="2"/>
<feComposite in2="hardAlpha" operator="out"/>
<feColorMatrix type="matrix" values="0 0 0 0 0 0 0 0 0 0 0 0 0 0 0 0 0 0 0.25 0"/>
<feBlend mode="normal" in2="BackgroundImageFix" result="effect1_dropShadow_2001_1590"/>
<feColorMatrix in="SourceAlpha" type="matrix" values="0 0 0 0 0 0 0 0 0 0 0 0 0 0 0 0 0 0 127 0" result="hardAlpha"/>
<feOffset dy="4"/>
<feGaussianBlur stdDeviation="2"/>
<feComposite in2="hardAlpha" operator="out"/>
<feColorMatrix type="matrix" values="0 0 0 0 0 0 0 0 0 0 0 0 0 0 0 0 0 0 0.25 0"/>
<feBlend mode="normal" in2="effect1_dropShadow_2001_1590" result="effect2_dropShadow_2001_1590"/>
<feBlend mode="normal" in="SourceGraphic" in2="effect2_dropShadow_2001_1590" result="shape"/>
</filter>
</defs>
</svg>
