<svg width="75" height="75" viewBox="0 0 75 75" fill="none" xmlns="http://www.w3.org/2000/svg">
<path d="M53.6865 6.41601C52.9248 6.9873 47.5488 12.4219 47.3291 12.8613C47.0947 13.3008 47.2412 13.7402 47.8418 14.3701L48.3545 14.8828L46.8018 16.3916C44.9707 18.1641 44.2676 18.5449 42.3779 18.7646C40.9424 18.9111 39.3018 19.5996 38.1006 20.5371L37.4414 21.0352L36.3721 20.2734C35.0098 19.292 34.0283 18.9258 32.3291 18.7793C30.5566 18.6035 30.0879 18.3545 28.1836 16.5234L26.6455 15.0439L27.1582 14.5166C27.7588 13.8867 27.9053 13.4473 27.6709 13.0078C27.4365 12.5244 21.5479 6.62109 21.0352 6.35742C20.8154 6.22558 20.4785 6.16699 20.3027 6.21093C20.1416 6.25488 15.498 10.7959 10.0049 16.2891C1.30371 24.9902 0 26.3525 0 26.7334C0 27.0996 0.498047 27.6709 3.35449 30.5273C6.48926 33.6621 6.75293 33.8965 7.23633 33.8965C7.63184 33.8965 7.88086 33.7793 8.27637 33.3984L8.78906 32.9004L10.1953 34.2773C10.957 35.0391 11.748 35.9326 11.9385 36.2549C12.1289 36.5771 12.4512 37.6318 12.6562 38.5986C13.2129 41.2061 13.8721 42.4512 15.7031 44.3262C16.4941 45.1318 17.1387 45.8643 17.1387 45.9228C17.1387 45.9961 16.6699 46.5234 16.1133 47.1094C14.8535 48.4131 14.458 49.2187 14.458 50.5518C14.458 52.2803 15.4541 53.833 17.0508 54.5801C17.4609 54.7705 18.0615 54.9316 18.3984 54.9316H18.999L19.0869 55.6934C19.3359 57.7441 20.9473 59.3701 22.9395 59.5752C23.7158 59.6631 23.7305 59.6631 23.7305 60.1465C23.7305 61.0107 24.3018 62.2559 25.0488 62.9883C25.7812 63.7354 27.0264 64.3066 27.9053 64.3066C28.4033 64.3066 28.418 64.3213 28.418 64.9219C28.418 65.2734 28.5791 65.8887 28.7695 66.2988C29.5166 67.9248 31.0986 68.9062 32.8857 68.9062C34.2188 68.8916 34.9219 68.5547 36.3867 67.207L37.5146 66.167L38.5693 67.207C39.9023 68.5254 40.5762 68.833 42.0557 68.8477C43.8867 68.8477 45.2637 67.998 46.04 66.4014C46.2158 66.0498 46.3916 65.7861 46.4355 65.8154C47.9883 66.7236 49.4971 66.8408 50.874 66.167C52.3535 65.4346 53.4668 63.8086 53.4668 62.373C53.4668 62.0215 53.5254 61.9629 53.877 61.9629C55.8105 61.9629 57.8174 60.1025 58.0957 58.0518L58.1836 57.3193L58.96 57.2314C61.1133 57.0117 62.7686 55.0781 62.7686 52.8076C62.7539 51.3281 62.4463 50.8301 59.8682 48.2373L57.6562 46.0107L58.9893 44.6191C61.3037 42.2021 61.9922 40.9424 62.2998 38.4961C62.5635 36.5332 62.7832 36.1377 64.7314 34.2187L66.1963 32.7686L66.7822 33.2959C67.8076 34.2334 67.7637 34.2627 71.5869 30.4248C74.502 27.5244 75 26.9531 75 26.5869C75 26.2061 74.1064 25.2539 68.3057 19.4531C64.6143 15.7617 61.4795 12.7002 61.333 12.6562C60.7178 12.4658 59.9121 13.1543 59.9121 13.8867C59.9121 14.0186 62.71 16.9336 66.1377 20.3613L72.3633 26.5869L70.0488 28.9014L67.749 31.2012L58.8135 22.2656L49.8779 13.3301L52.1777 11.0303L54.4775 8.73046L55.8545 10.0781C57.3779 11.5723 57.7441 11.7041 58.374 11.0596C59.0625 10.3857 58.916 10.0928 56.8799 8.04199C55.8252 6.9873 54.8438 6.12304 54.6387 6.0791C54.3604 6.0205 54.1113 6.10839 53.6865 6.41601ZM22.8516 11.2061L25.1221 13.4766L19.6582 18.9404C16.6699 21.9434 14.209 24.5068 14.209 24.6387C14.209 25.3857 14.9414 26.0303 15.5859 25.8398C15.7471 25.7959 17.9736 23.6865 20.5078 21.1523L25.1221 16.5527L25.8984 17.3291L26.6748 18.1201L19.2627 25.415L11.8506 32.71L11.1328 32.0068L10.4004 31.2891L11.7188 29.9414C13.1543 28.4912 13.2715 28.1836 12.7295 27.4805C12.5244 27.2168 12.29 27.0996 11.9678 27.0996C11.5576 27.0996 11.2207 27.3633 9.44824 29.1504C8.32031 30.2783 7.33887 31.2012 7.25098 31.2012C7.17773 31.2012 6.1084 30.1904 4.87793 28.9746L2.63672 26.7334L11.5283 17.8418C16.4355 12.9346 20.4639 8.93554 20.5078 8.93554C20.5518 8.93554 21.6064 9.96093 22.8516 11.2061ZM63.8965 31.9629L63.1348 32.7393L55.7373 25.3418L48.3398 17.9443L49.1016 17.1826L49.8779 16.4062L57.2754 23.8037L64.6729 31.2012L63.8965 31.9629ZM54.1846 26.8652L61.5674 34.248L61.1279 34.9658C60.5127 35.9619 60.3809 36.3574 60.1465 38.042C59.8535 40.21 59.4873 40.8984 57.6123 42.8027L56.0449 44.3848L54.4922 42.8467C53.1006 41.4551 52.8955 41.3086 52.4121 41.3086C51.7822 41.3086 51.416 41.7041 51.416 42.3926C51.416 42.7734 52.0166 43.4326 55.7959 47.2412C58.2129 49.6582 60.2637 51.8262 60.3369 52.0459C60.9082 53.54 59.8389 55.0781 58.2568 55.0781H57.5244L54.7119 52.2949C51.8555 49.4678 51.6504 49.3213 50.9033 49.5996C50.4932 49.7607 50.2295 50.4639 50.4053 50.9326C50.4785 51.1523 51.709 52.5 53.1006 53.9062C55.8838 56.6895 56.0889 57.0117 55.7812 58.0371C55.5908 58.667 54.7119 59.5605 54.126 59.707C53.1299 59.9561 52.8076 59.7363 49.9365 56.8945C47.5635 54.5361 47.1533 54.1992 46.7578 54.1992C46.1426 54.1992 45.7031 54.6533 45.7031 55.2686C45.7031 55.6934 45.9961 56.0303 48.3398 58.374C51.1084 61.1279 51.3867 61.5381 51.1963 62.4902C51.0645 63.208 50.2002 64.1162 49.4824 64.3066C48.4277 64.5996 48.0762 64.3652 45.1758 61.5088C43.0957 59.4434 42.4512 58.8867 42.1436 58.8867C41.8359 58.8867 41.7041 58.7695 41.4844 58.2422C40.8691 56.8652 39.4189 55.7666 37.9248 55.5762L37.2363 55.4883L37.1484 54.7998C36.8848 52.8223 35.2148 51.167 33.208 50.8887L32.5635 50.8008L32.4756 50.0977C32.2412 48.1348 30.6006 46.5088 28.5352 46.2158C27.8613 46.1279 27.832 46.0986 27.832 45.6445C27.832 43.5791 25.6494 41.6016 23.3789 41.6016C22.0605 41.6016 21.3135 41.9531 19.9951 43.2422L18.7939 44.3848L17.4023 42.9492C15.7471 41.2353 15.2637 40.3271 14.7949 38.0859C14.6045 37.1484 14.2822 36.123 13.96 35.4639L13.4473 34.3799L20.8447 26.9824L28.2422 19.585L28.6963 19.9072C29.5312 20.5078 30.4688 20.8154 31.8896 20.9619C33.4717 21.123 33.9258 21.2842 35.0977 22.0605L35.9033 22.6025L31.6553 26.8652C26.6455 31.9043 26.5869 31.9775 26.5869 34.2773C26.5869 35.4785 26.6455 35.7861 26.9678 36.4893C27.5098 37.6465 28.2861 38.4375 29.4141 38.9941C30.3223 39.4482 30.498 39.4775 31.8604 39.4775C34.0283 39.4629 34.1748 39.375 37.9395 35.6543L41.0889 32.5342L44.8242 36.2549C48.0469 39.4629 48.6328 39.9902 49.0137 39.9902C49.7021 39.9902 50.0977 39.624 50.0977 38.9941C50.0977 38.4814 49.8926 38.2471 46.3623 34.7168L42.6416 30.9961L43.5791 30.0146C44.6484 28.916 44.7656 28.4912 44.165 27.9053C43.418 27.1436 43.4033 27.1436 38.3203 32.2119C35.2002 35.332 33.4424 36.9727 33.0762 37.1191C32.1387 37.5146 31.084 37.4268 30.1758 36.8701C28.7988 36.0352 28.3008 34.3506 29.0039 32.8857C29.1943 32.4902 31.0693 30.5273 34.4531 27.1582C40.3125 21.3281 40.5176 21.1816 42.7734 20.9326C44.1357 20.7715 45.2344 20.4346 46.0693 19.8779C46.3916 19.6728 46.6846 19.4971 46.7285 19.4971C46.7725 19.4824 50.127 22.8076 54.1846 26.8652ZM24.5801 44.0918C25.5469 44.6777 25.9131 45.9228 25.4004 46.9189C25.1367 47.4463 21.4014 51.2842 20.3174 52.1631C19.7021 52.6611 19.4971 52.7344 18.8818 52.7344C18.4717 52.7344 17.959 52.6318 17.7246 52.5146C16.8604 52.0752 16.4209 50.4639 16.9043 49.541C17.1387 49.1016 22.0312 44.209 22.4854 43.96C22.9688 43.7109 24.0527 43.7695 24.5801 44.0918ZM29.2676 48.7646C29.7217 48.999 30.1611 49.6289 30.2637 50.1709C30.4541 51.2402 30.293 51.4893 27.4805 54.3164C26.0303 55.7959 24.6533 57.0996 24.4336 57.2168C23.4375 57.7295 22.1191 57.29 21.5771 56.25C21.1963 55.5176 21.1523 54.9316 21.4453 54.375C21.5625 54.1553 22.8809 52.7637 24.3604 51.2842C26.6895 48.9697 27.1436 48.5742 27.6416 48.4863C28.2129 48.3984 28.7402 48.4717 29.2676 48.7646ZM34.3652 53.8184C34.9951 54.5508 35.127 55.2979 34.7461 56.1328C34.3359 57.041 29.5752 61.6992 28.8135 61.9629C26.9678 62.5635 25.2979 60.6885 26.1621 58.9893C26.4404 58.4619 30.5273 54.2432 31.4209 53.584C31.9629 53.1885 32.0947 53.1592 32.9443 53.2031C33.8232 53.2617 33.9258 53.3057 34.3652 53.8184ZM38.2764 57.9199C38.9062 58.1836 39.5215 58.916 39.6387 59.5605C39.7998 60.4687 39.4043 61.0254 36.5039 63.9111C33.4424 66.9434 33.252 67.0605 31.9922 66.5771C30.8643 66.1523 30.2783 64.6436 30.8203 63.6035C31.1133 63.0469 36.1816 58.0518 36.6211 57.876C37.1484 57.6709 37.7344 57.6855 38.2764 57.9199ZM44.165 64.0576C44.3994 65.3174 43.8281 66.3135 42.6562 66.665C41.792 66.9141 41.0156 66.5918 39.9316 65.4932L39.0674 64.6143L40.1074 63.4863C40.6787 62.8711 41.2646 62.0654 41.4111 61.7139L41.6748 61.084L42.876 62.2852C43.7842 63.2227 44.0918 63.6328 44.165 64.0576Z" fill="#2B6CFE"/>
</svg>
