<svg width="138" height="48" viewBox="0 0 138 48" fill="none" xmlns="http://www.w3.org/2000/svg">
<path d="M5.34602 47.6164C4.52265 47.6164 3.78083 47.4318 3.12058 47.0628C2.46033 46.6857 1.93989 46.1683 1.55927 45.5104C1.18642 44.8526 1 44.1185 1 43.3082C1 42.4979 1.18642 41.7638 1.55927 41.106C1.93989 40.4481 2.46033 39.9346 3.12058 39.5656C3.78083 39.1885 4.52265 39 5.34602 39C6.16163 39 6.89956 39.1885 7.55982 39.5656C8.22007 39.9346 8.73662 40.4481 9.10947 41.106C9.48232 41.7558 9.66874 42.4899 9.66874 43.3082C9.66874 44.1265 9.48232 44.8646 9.10947 45.5224C8.73662 46.1723 8.22007 46.6857 7.55982 47.0628C6.89956 47.4318 6.16163 47.6164 5.34602 47.6164ZM5.34602 46.5453C5.94414 46.5453 6.48011 46.4049 6.95394 46.1241C7.43553 45.8434 7.81227 45.4583 8.08414 44.9689C8.36377 44.4715 8.50359 43.9179 8.50359 43.3082C8.50359 42.6985 8.36377 42.1489 8.08414 41.6595C7.81227 41.1621 7.43553 40.773 6.95394 40.4922C6.48011 40.2114 5.94414 40.071 5.34602 40.071C4.74791 40.071 4.20417 40.2114 3.71481 40.4922C3.23321 40.773 2.85259 41.1621 2.57296 41.6595C2.30109 42.1489 2.16515 42.6985 2.16515 43.3082C2.16515 43.9179 2.30109 44.4715 2.57296 44.9689C2.85259 45.4583 3.23321 45.8434 3.71481 46.1241C4.20417 46.4049 4.74791 46.5453 5.34602 46.5453Z" fill="white"/>
<path d="M19.0115 47.5201L18.9998 41.3827L16.052 46.4972H15.516L12.5682 41.4188V47.5201H11.4496V39.0963H12.405L15.8073 45.017L19.1629 39.0963H20.1184L20.13 47.5201H19.0115Z" fill="white"/>
<path d="M28.4967 46.4731V47.5201H22.5777V39.0963H28.3336V40.1432H23.7429V42.7305H27.8326V43.7534H23.7429V46.4731H28.4967Z" fill="white"/>
<path d="M36.0002 43.26H37.1188V46.5453C36.7148 46.8903 36.2449 47.1551 35.7089 47.3396C35.173 47.5241 34.6137 47.6164 34.0311 47.6164C33.2077 47.6164 32.4659 47.4318 31.8057 47.0628C31.1454 46.6857 30.625 46.1723 30.2444 45.5224C29.8715 44.8646 29.6851 44.1265 29.6851 43.3082C29.6851 42.4899 29.8715 41.7518 30.2444 41.0939C30.625 40.4361 31.1454 39.9226 31.8057 39.5536C32.4737 39.1845 33.2233 39 34.0544 39C34.7069 39 35.2972 39.1123 35.8254 39.337C36.3614 39.5536 36.8158 39.8745 37.1887 40.2997L36.4663 41.0458C35.8138 40.3959 35.0254 40.071 34.101 40.071C33.4796 40.071 32.9203 40.2114 32.4232 40.4922C31.9338 40.765 31.5493 41.1501 31.2697 41.6475C30.9901 42.1369 30.8502 42.6904 30.8502 43.3082C30.8502 43.9179 30.9901 44.4715 31.2697 44.9689C31.5493 45.4583 31.9338 45.8434 32.4232 46.1241C32.9203 46.4049 33.4757 46.5453 34.0894 46.5453C34.8195 46.5453 35.4565 46.3648 36.0002 46.0038V43.26Z" fill="white"/>
<path d="M44.5462 45.4141H40.2118L39.3146 47.5201H38.1145L41.8081 39.0963H42.9616L46.6667 47.5201H45.4433L44.5462 45.4141ZM44.1384 44.4514L42.379 40.3237L40.6196 44.4514H44.1384Z" fill="white"/>
<path d="M59.3606 39.0963C60.4287 39.0963 61.269 39.357 61.8816 39.8785C62.4941 40.4 62.8004 41.118 62.8004 42.0326C62.8004 42.9472 62.4941 43.6652 61.8816 44.1867C61.269 44.7081 60.4287 44.9689 59.3606 44.9689H57.3227V47.5201H56.1447V39.0963H59.3606ZM59.3253 43.9219C60.0714 43.9219 60.6407 43.7615 61.0334 43.4406C61.4261 43.1116 61.6224 42.6423 61.6224 42.0326C61.6224 41.4229 61.4261 40.9575 61.0334 40.6366C60.6407 40.3077 60.0714 40.1432 59.3253 40.1432H57.3227V43.9219H59.3253Z" fill="white"/>
<path d="M70.0441 47.5201L68.2653 44.9328C68.0454 44.9488 67.8727 44.9568 67.747 44.9568H65.7091V47.5201H64.5311V39.0963H67.747C68.815 39.0963 69.6553 39.357 70.2679 39.8785C70.8805 40.4 71.1868 41.118 71.1868 42.0326C71.1868 42.6824 71.0297 43.236 70.7156 43.6933C70.4014 44.1506 69.9538 44.4835 69.3726 44.6921L71.3281 47.5201H70.0441ZM67.7117 43.934C68.4577 43.934 69.0271 43.7695 69.4198 43.4406C69.8124 43.1116 70.0088 42.6423 70.0088 42.0326C70.0088 41.4229 69.8124 40.9575 69.4198 40.6366C69.0271 40.3077 68.4577 40.1432 67.7117 40.1432H65.7091V43.934H67.7117Z" fill="white"/>
<path d="M76.8124 47.6164C75.98 47.6164 75.23 47.4318 74.5625 47.0628C73.8949 46.6857 73.3688 46.1683 72.9839 45.5104C72.607 44.8526 72.4185 44.1185 72.4185 43.3082C72.4185 42.4979 72.607 41.7638 72.9839 41.106C73.3688 40.4481 73.8949 39.9346 74.5625 39.5656C75.23 39.1885 75.98 39 76.8124 39C77.637 39 78.3831 39.1885 79.0507 39.5656C79.7182 39.9346 80.2404 40.4481 80.6174 41.106C80.9943 41.7558 81.1828 42.4899 81.1828 43.3082C81.1828 44.1265 80.9943 44.8646 80.6174 45.5224C80.2404 46.1723 79.7182 46.6857 79.0507 47.0628C78.3831 47.4318 77.637 47.6164 76.8124 47.6164ZM76.8124 46.5453C77.4172 46.5453 77.959 46.4049 78.4381 46.1241C78.925 45.8434 79.3059 45.4583 79.5807 44.9689C79.8635 44.4715 80.0048 43.9179 80.0048 43.3082C80.0048 42.6985 79.8635 42.1489 79.5807 41.6595C79.3059 41.1621 78.925 40.773 78.4381 40.4922C77.959 40.2114 77.4172 40.071 76.8124 40.071C76.2077 40.071 75.658 40.2114 75.1632 40.4922C74.6763 40.773 74.2915 41.1621 74.0088 41.6595C73.7339 42.1489 73.5965 42.6985 73.5965 43.3082C73.5965 43.9179 73.7339 44.4715 74.0088 44.9689C74.2915 45.4583 74.6763 45.8434 75.1632 46.1241C75.658 46.4049 76.2077 46.5453 76.8124 46.5453Z" fill="white"/>
<path d="M82.9833 39.0963H86.4584C87.3301 39.0963 88.1037 39.2728 88.7791 39.6258C89.4545 39.9788 89.9767 40.4762 90.3458 41.118C90.7228 41.7518 90.9113 42.4818 90.9113 43.3082C90.9113 44.1345 90.7228 44.8686 90.3458 45.5104C89.9767 46.1442 89.4545 46.6376 88.7791 46.9906C88.1037 47.3436 87.3301 47.5201 86.4584 47.5201H82.9833V39.0963ZM86.3877 46.4731C87.0553 46.4731 87.6404 46.3408 88.143 46.076C88.6534 45.8113 89.0461 45.4422 89.321 44.9689C89.5958 44.4875 89.7333 43.934 89.7333 43.3082C89.7333 42.6824 89.5958 42.1329 89.321 41.6595C89.0461 41.1782 88.6534 40.8051 88.143 40.5404C87.6404 40.2756 87.0553 40.1432 86.3877 40.1432H84.1613V46.4731H86.3877Z" fill="white"/>
<path d="M96.1318 47.6164C95.0324 47.6164 94.1764 47.2955 93.5638 46.6536C92.9512 46.0118 92.645 45.0892 92.645 43.8858V39.0963H93.823V43.8377C93.823 45.6428 94.5965 46.5453 96.1436 46.5453C96.8975 46.5453 97.4748 46.3247 97.8753 45.8835C98.2758 45.4342 98.4761 44.7523 98.4761 43.8377V39.0963H99.6187V43.8858C99.6187 45.0972 99.3124 46.0239 98.6999 46.6657C98.0873 47.2995 97.2313 47.6164 96.1318 47.6164Z" fill="white"/>
<path d="M105.721 47.6164C104.896 47.6164 104.15 47.4318 103.483 47.0628C102.823 46.6857 102.305 46.1723 101.928 45.5224C101.551 44.8646 101.362 44.1265 101.362 43.3082C101.362 42.4899 101.551 41.7558 101.928 41.106C102.305 40.4481 102.827 39.9346 103.495 39.5656C104.162 39.1885 104.908 39 105.733 39C106.377 39 106.966 39.1123 107.5 39.337C108.034 39.5536 108.489 39.8785 108.866 40.3117L108.101 41.0699C107.48 40.404 106.707 40.071 105.78 40.071C105.167 40.071 104.614 40.2114 104.119 40.4922C103.624 40.773 103.235 41.1621 102.953 41.6595C102.678 42.1489 102.54 42.6985 102.54 43.3082C102.54 43.9179 102.678 44.4715 102.953 44.9689C103.235 45.4583 103.624 45.8434 104.119 46.1241C104.614 46.4049 105.167 46.5453 105.78 46.5453C106.699 46.5453 107.472 46.2084 108.101 45.5345L108.866 46.2926C108.489 46.7258 108.03 47.0548 107.488 47.2794C106.954 47.5041 106.365 47.6164 105.721 47.6164Z" fill="white"/>
<path d="M112.092 40.1432H109.265V39.0963H116.086V40.1432H113.258V47.5201H112.092V40.1432Z" fill="white"/>
<path d="M117.369 39.0963H118.547V47.5201H117.369V39.0963Z" fill="white"/>
<path d="M124.738 47.6164C123.905 47.6164 123.155 47.4318 122.488 47.0628C121.82 46.6857 121.294 46.1683 120.909 45.5104C120.532 44.8526 120.344 44.1185 120.344 43.3082C120.344 42.4979 120.532 41.7638 120.909 41.106C121.294 40.4481 121.82 39.9346 122.488 39.5656C123.155 39.1885 123.905 39 124.738 39C125.562 39 126.308 39.1885 126.976 39.5656C127.643 39.9346 128.166 40.4481 128.543 41.106C128.92 41.7558 129.108 42.4899 129.108 43.3082C129.108 44.1265 128.92 44.8646 128.543 45.5224C128.166 46.1723 127.643 46.6857 126.976 47.0628C126.308 47.4318 125.562 47.6164 124.738 47.6164ZM124.738 46.5453C125.342 46.5453 125.884 46.4049 126.363 46.1241C126.85 45.8434 127.231 45.4583 127.506 44.9689C127.789 44.4715 127.93 43.9179 127.93 43.3082C127.93 42.6985 127.789 42.1489 127.506 41.6595C127.231 41.1621 126.85 40.773 126.363 40.4922C125.884 40.2114 125.342 40.071 124.738 40.071C124.133 40.071 123.583 40.2114 123.089 40.4922C122.602 40.773 122.217 41.1621 121.934 41.6595C121.659 42.1489 121.522 42.6985 121.522 43.3082C121.522 43.9179 121.659 44.4715 121.934 44.9689C122.217 45.4583 122.602 45.8434 123.089 46.1241C123.583 46.4049 124.133 46.5453 124.738 46.5453Z" fill="white"/>
<path d="M138 39.0963V47.5201H137.034L132.087 41.2383V47.5201H130.909V39.0963H131.875L136.822 45.378V39.0963H138Z" fill="white"/>
<path fill-rule="evenodd" clip-rule="evenodd" d="M23.8767 4.99899C25.7197 7.28365 26.8225 10.1845 26.8225 13.3419C26.8225 20.0122 21.9023 25.5391 15.4756 26.527V22.5082C19.6965 21.5714 22.8518 17.8235 22.8518 13.3419C22.8518 11.6025 22.3762 9.97388 21.5479 8.57694L21.5044 8.50454L24.1024 5.28675C24.0285 5.18976 23.9532 5.09385 23.8767 4.99899Z" fill="#032A6A"/>
<path fill-rule="evenodd" clip-rule="evenodd" d="M2.97406 5.01208C1.13105 7.29674 0.0282462 10.1976 0.0282462 13.355C0.0282462 18.7248 3.21684 23.3535 7.81305 25.4698C8.92626 25.9823 10.122 26.3475 11.3751 26.5401V22.5213C11.0462 22.4483 10.7239 22.3583 10.409 22.2521C6.6817 20.9961 3.9989 17.4875 3.9989 13.355C3.9989 11.6156 4.47452 9.98698 5.30281 8.59003L5.34637 8.51764L2.7483 5.29985C2.82223 5.20286 2.89753 5.10695 2.97406 5.01208Z" fill="#032A6A"/>
<path fill-rule="evenodd" clip-rule="evenodd" d="M9.91416 28.8283H25.5411V32.9358H12.0404L9.91416 28.8283Z" fill="#032A6A"/>
<path fill-rule="evenodd" clip-rule="evenodd" d="M13.4118 0C17.7767 0 21.6535 2.07458 24.1024 5.28675L21.5054 8.50564C19.8538 5.77621 16.8473 3.95033 13.4118 3.95033C8.19802 3.95033 3.97141 8.15529 3.97141 13.3423C3.97141 17.4863 6.66919 21.0027 10.4127 22.2496L7.81399 25.4694L8.03451 25.1961L0.342721 10.3361L0.340513 10.3457C1.70758 4.42008 7.04082 0 13.4118 0Z" fill="#3B71AF"/>
<path fill-rule="evenodd" clip-rule="evenodd" d="M1.28151 28.8283H9.91416L12.0404 32.9358L1.28151 32.9358V28.8283Z" fill="#3B71AF"/>
<path fill-rule="evenodd" clip-rule="evenodd" d="M7.81305 25.4698C3.20176 23.3595 0 18.7241 0 13.3434C0 12.3096 0.118274 11.3034 0.34188 10.3372L8.03374 25.1971L7.81305 25.4698Z" fill="#7FC3FC"/>
</svg>
